<svg width="1920" height="80" viewBox="0 0 1920 80" fill="none" xmlns="http://www.w3.org/2000/svg">
<g clip-path="url(#clip0)">
<rect width="1920" height="80" fill="#093D77"/>
<path fill-rule="evenodd" clip-rule="evenodd" d="M984 -23.999L337 -25L386 25H408.5L445.5 62.001L642 61L659 81H984H984.5H1261.5L1278.5 61L1475 62.001L1512 25H1534.5L1583.5 -25L984.5 -23.999H984Z" fill="url(#paint0_linear)" fill-opacity="0.48"/>
<g clip-path="url(#clip1)">
<path d="M538.5 60.5H528L526 62.5H502.5L499.5 59.5" stroke="#127AEE" stroke-width="3"/>
<path fill-rule="evenodd" clip-rule="evenodd" d="M394.939 12.0607L404.879 22.0001H386.621L377.061 12.4393L374.939 14.5607L384.939 24.5607L385.379 25.0001H386H407.879L444.439 61.5607L444.879 62H445.5L462 62H499.879H500.5H526H528H538.5V59H528H526H501.121L500.561 58.4393L500.121 58H499.5H463H462.379L461.939 58.4393L461.379 59L446.121 59L409.561 22.4394L397.061 9.93933L394.939 12.0607ZM556 56H556.207L556.354 56.1464L563.207 63H582H582.207L582.354 63.1464L591.207 72H639.5H639.707L639.854 72.1465L644.707 77H647.5H647.707L647.854 77.1465L652.354 81.6465L651.647 82.3536L647.293 78H644.5H644.293L644.147 77.8536L639.293 73H591H590.793L590.647 72.8536L581.793 64H563H562.793L562.647 63.8535L555.793 57H534.707L533.854 57.8535L533.707 58H533.5H511V57H533.293L534.147 56.1464L534.293 56H534.5H556Z" fill="#24B8FF"/>
<path d="M652 82L647.5 77.5H644.5L639.5 72.5H591L582 63.5H563C563 63.5 560.5 61 560 60.5" stroke="#127AEE"/>
<path fill-rule="evenodd" clip-rule="evenodd" d="M628.586 64H631.414L637.414 70H634.586L628.586 64ZM626.586 70H629.414L623.414 64H620.586L626.586 70ZM618.586 70H621.414L615.414 64H612.586L618.586 70ZM610.586 70H613.414L607.414 64H604.586L610.586 70ZM602.586 70H605.414L599.414 64H596.586L602.586 70ZM594.586 70H597.414L591.414 64H588.586L594.586 70Z" fill="#127AEE"/>
<path fill-rule="evenodd" clip-rule="evenodd" d="M642.172 59H641.713H526.199V61H641.254L658.158 80.6521L658.457 81H658.916H683V79H659.375L642.471 59.3479L642.172 59Z" fill="#24B8FF"/>
<path fill-rule="evenodd" clip-rule="evenodd" d="M626.586 70H629.414L623.414 64H620.586L626.586 70ZM618.586 70H621.414L615.414 64H612.586L618.586 70ZM628.586 64L634.586 70H637.414L631.414 64H628.586Z" fill="#24F4FF"/>
<path fill-rule="evenodd" clip-rule="evenodd" d="M564.015 66L568.015 70H584.985L580.985 66H564.015Z" fill="white"/>
<path fill-rule="evenodd" clip-rule="evenodd" d="M564.015 66L568.015 70H584.985L580.985 66H564.015Z" fill="#24F4FF"/>
<path fill-rule="evenodd" clip-rule="evenodd" d="M394.707 16H397L401 20H398.707L394.707 16ZM397.293 20H395.207L391.207 16H393.293L397.293 20ZM389.793 16L393.793 20H391.707L387.707 16H389.793ZM386.293 16L390.293 20H387L383 16H386.293Z" fill="white"/>
<path fill-rule="evenodd" clip-rule="evenodd" d="M394.707 16H397L401 20H398.707L394.707 16ZM397.293 20H395.207L391.207 16H393.293L397.293 20ZM389.793 16L393.793 20H391.707L387.707 16H389.793ZM386.293 16L390.293 20H387L383 16H386.293Z" fill="#24F4FF"/>
<path d="M528 60H539" stroke="#24F4FF" stroke-width="2"/>
<rect x="683" y="79" width="554" height="2" fill="#29C7FF"/>
<path d="M1381.5 60.5H1392L1394 62.5H1417.5L1420.5 59.5" stroke="#127AEE" stroke-width="3"/>
<path fill-rule="evenodd" clip-rule="evenodd" d="M1525.06 12.0607L1515.12 22.0001H1533.38L1542.94 12.4393L1545.06 14.5607L1535.06 24.5607L1534.62 25.0001H1534H1512.12L1475.56 61.5607L1475.12 62H1474.5L1458 62H1420.12H1419.5H1394H1392H1381.5V59H1392H1394H1418.88L1419.44 58.4393L1419.88 58H1420.5H1457H1457.62L1458.06 58.4393L1458.62 59L1473.88 59L1510.44 22.4394L1522.94 9.93933L1525.06 12.0607ZM1364 56H1363.79L1363.65 56.1464L1356.79 63H1338H1337.79L1337.65 63.1464L1328.79 72H1280.5H1280.29L1280.15 72.1465L1275.29 77H1272.5H1272.29L1272.15 77.1465L1267.65 81.6465L1268.35 82.3536L1272.71 78H1275.5H1275.71L1275.85 77.8536L1280.71 73H1329H1329.21L1329.35 72.8536L1338.21 64H1357H1357.21L1357.35 63.8535L1364.21 57H1385.29L1386.15 57.8535L1386.29 58H1386.5H1409V57H1386.71L1385.85 56.1464L1385.71 56H1385.5H1364Z" fill="#24B8FF"/>
<path d="M1268 82L1272.5 77.5H1275.5L1280.5 72.5H1329L1338 63.5H1357C1357 63.5 1359.5 61 1360 60.5" stroke="#127AEE"/>
<path fill-rule="evenodd" clip-rule="evenodd" d="M1291.41 64H1288.59L1282.59 70H1285.41L1291.41 64ZM1293.41 70H1290.59L1296.59 64H1299.41L1293.41 70ZM1301.41 70H1298.59L1304.59 64H1307.41L1301.41 70ZM1309.41 70H1306.59L1312.59 64H1315.41L1309.41 70ZM1317.41 70H1314.59L1320.59 64H1323.41L1317.41 70ZM1325.41 70H1322.59L1328.59 64H1331.41L1325.41 70Z" fill="#127AEE"/>
<path fill-rule="evenodd" clip-rule="evenodd" d="M1277.83 59H1278.29H1393.8V61H1278.75L1261.84 80.6521L1261.54 81H1261.08H1237V79H1260.63L1277.53 59.3479L1277.83 59Z" fill="#24B8FF"/>
<path fill-rule="evenodd" clip-rule="evenodd" d="M1293.41 70H1290.59L1296.59 64H1299.41L1293.41 70ZM1301.41 70H1298.59L1304.59 64H1307.41L1301.41 70ZM1291.41 64L1285.41 70H1282.59L1288.59 64H1291.41Z" fill="#24F4FF"/>
<path fill-rule="evenodd" clip-rule="evenodd" d="M1355.99 66L1351.99 70H1335.01L1339.01 66H1355.99Z" fill="white"/>
<path fill-rule="evenodd" clip-rule="evenodd" d="M1355.99 66L1351.99 70H1335.01L1339.01 66H1355.99Z" fill="#24F4FF"/>
<path fill-rule="evenodd" clip-rule="evenodd" d="M1525.29 16H1523L1519 20H1521.29L1525.29 16ZM1522.71 20H1524.79L1528.79 16H1526.71L1522.71 20ZM1530.21 16L1526.21 20H1528.29L1532.29 16H1530.21ZM1533.71 16L1529.71 20H1533L1537 16H1533.71Z" fill="white"/>
<path fill-rule="evenodd" clip-rule="evenodd" d="M1525.29 16H1523L1519 20H1521.29L1525.29 16ZM1522.71 20H1524.79L1528.79 16H1526.71L1522.71 20ZM1530.21 16L1526.21 20H1528.29L1532.29 16H1530.21ZM1533.71 16L1529.71 20H1533L1537 16H1533.71Z" fill="#24F4FF"/>
<path d="M1392 60H1381" stroke="#24F4FF" stroke-width="2"/>
</g>
<path d="M659 77H1261V80H659V77Z" fill="url(#paint1_linear)"/>
<rect x="659" y="75" width="602" height="5" fill="url(#paint2_linear)"/>
<rect x="659" y="72" width="602" height="8" fill="url(#paint3_linear)"/>
<rect x="916" y="77" width="88" height="3" fill="url(#paint4_linear)"/>
<g clip-path="url(#clip2)">
<g filter="url(#filter0_d)">
<path fill-rule="evenodd" clip-rule="evenodd" d="M686 21H695.846L695.846 21H696L695.923 21.0678L714 37H709V52.9999V58.9999V59H703V58.9999H697V52.9999H703V37H704.154L691 25.4068L677.846 37H680V52.9999H691V58.9999H680V59H674V58.9999V52.9999V37H668L686.077 21.0678L686 21ZM691 46.9999V52.9999H697L697 46.9999H691ZM691 46.9999H685V40.9999H691V46.9999Z" fill="#E3F7FF"/>
<path fill-rule="evenodd" clip-rule="evenodd" d="M686 21H695.846L695.846 21H696L695.923 21.0678L714 37H709V52.9999V58.9999V59H703V58.9999H697V52.9999H703V37H704.154L691 25.4068L677.846 37H680V52.9999H691V58.9999H680V59H674V58.9999V52.9999V37H668L686.077 21.0678L686 21ZM691 46.9999V52.9999H697L697 46.9999H691ZM691 46.9999H685V40.9999H691V46.9999Z" fill="url(#paint5_linear)"/>
</g>
<g filter="url(#filter1_d)">
<path d="M735.93 30.3047V26.4453H750.031V23.7734H755.82V26.4453H770.07V30.3047H755.82V32.8281H768.734V52.7188C768.833 56.2812 767.25 58.013 763.984 57.9141H759.977V54.5H761.609C762.797 54.5 763.341 53.9557 763.242 52.8672V36.3906H742.758V57.9141H737.414V32.8281H750.031V30.3047H735.93ZM744.242 44.7031V41.2891H746.766C746.271 40.0026 745.974 38.7656 745.875 37.5781H750.773C750.773 38.5677 751.021 39.8047 751.516 41.2891H754.336C754.831 40.2995 755.128 39.0625 755.227 37.5781H760.125C760.026 38.7656 759.729 40.0026 759.234 41.2891H761.758V44.7031H755.82V47.5234H762.5V50.9375H755.82V57.0234H750.18V50.9375H743.648V47.5234H750.18V44.7031H744.242ZM776.711 57.4688V41.5859H807.438V51.9766C807.536 55.737 805.805 57.5677 802.242 57.4688H776.711ZM778.492 39.3594V25.2578H805.508V34.0156C805.607 37.6771 803.974 39.4583 800.609 39.3594H778.492ZM782.203 54.2031H799.867C801.253 54.3021 801.896 53.5599 801.797 51.9766V50.9375H782.203V54.2031ZM782.203 45V47.9688H801.797V45H782.203ZM783.836 35.9453H798.234C799.521 35.9453 800.164 35.2526 800.164 33.8672V33.7188H783.836V35.9453ZM783.836 28.6719V30.8984H800.164V28.6719H783.836ZM816.156 54.6484V34.3125H828.031V31.4922H833.969V34.3125H846.141V48.8594C846.24 52.6198 844.31 54.5 840.352 54.5H836.641V50.7891H838.57C840.055 50.7891 840.747 50.0964 840.648 48.7109V38.1719H833.969V58.2109H828.031V38.1719H821.648V54.6484H816.156ZM814.078 30.75V26.8906H827.586V23.9219H834.266V26.8906H847.922V30.75H814.078ZM856.344 57.4688V41.8828H883.805V52.4219C883.904 55.8854 882.122 57.5677 878.461 57.4688H856.344ZM872.227 39.8047V25.7031H885.883V35.3516C885.982 38.3203 884.448 39.8047 881.281 39.8047H872.227ZM870.891 41.4375C867.031 40.7448 864.161 39.3594 862.281 37.2812C860.401 39.2604 857.333 40.6953 853.078 41.5859V38.9141C856.146 37.9245 858.174 36.4896 859.164 34.6094H852.93V31.7891H859.758C859.857 31.1953 859.906 30.651 859.906 30.1562V28.5234H858.273C857.086 29.612 855.305 30.3047 852.93 30.6016V28.2266C854.909 27.5339 856.047 26.0495 856.344 23.7734H860.797C860.698 24.4661 860.5 25.1094 860.203 25.7031H870.297V28.5234H864.656V29.5625C864.656 30.2552 864.607 30.9974 864.508 31.7891H871.039V34.6094H865.102C866.289 36.6875 868.219 38.0729 870.891 38.7656V41.4375ZM861.539 54.2031H876.977C878.164 54.2031 878.758 53.6094 878.758 52.4219V51.2344H861.539V54.2031ZM861.539 45.2969V48.1172H878.758V45.2969H861.539ZM876.828 36.6875H879.352C880.737 36.7865 881.38 36.1927 881.281 34.9062V28.8203H876.828V36.6875ZM892.672 28.0781V25.5547H898.312V23.9219H902.914V25.5547H908.258V28.0781H902.914V29.7109H907.961V32.2344H902.914V33.8672H908.555V36.3906H902.914V38.0234H914.938V36.5391H909.445V34.0156H914.938V32.2344H910.039V29.7109H914.938V28.0781H909.594V25.5547H914.938V23.9219H919.688V25.5547H925.328V28.0781H919.688V29.7109H924.734V32.2344H919.688V34.0156H925.477V36.5391H919.688V38.0234H923.102V43.8125C923.201 47.1771 921.667 48.8099 918.5 48.7109H894.008V46.1875H916.273C917.362 46.2865 917.956 45.6927 918.055 44.4062H895.195V42.1797H918.055V40.5469H894.305V38.0234H898.312V36.3906H892.227V33.8672H898.312V32.2344H893.266V29.7109H898.312V28.0781H892.672ZM904.695 57.7656C901.331 57.8646 899.698 56.4297 899.797 53.4609V49.75H904.844V52.4219C904.745 53.9062 905.536 54.599 907.219 54.5H913.602C914.789 54.599 915.333 54.1536 915.234 53.1641V52.4219H919.391V53.6094C919.49 56.4792 918.055 57.8646 915.086 57.7656H904.695ZM921.172 56.5781C920.776 54.3021 920.083 52.026 919.094 49.75H923.398C924.586 52.026 925.427 54.3021 925.922 56.5781H921.172ZM891.93 56.5781C892.919 54.8958 893.76 52.6198 894.453 49.75H898.758C898.263 52.3229 897.521 54.599 896.531 56.5781H891.93ZM908.852 53.4609C908.555 52.2734 908.208 51.0365 907.812 49.75H912.414C912.909 50.5417 913.404 51.7786 913.898 53.4609H908.852ZM932.562 29.2656V25.5547H963.586V29.2656H950.969V43.0703H965.07V46.9297H950.969V58.2109H945.031V46.9297H930.781V43.0703H945.031V29.2656H932.562ZM936.719 40.25C935.432 37.776 934.492 35.0547 933.898 32.0859H939.539C939.935 35.0547 940.677 37.776 941.766 40.25H936.719ZM954.234 40.25C955.422 37.2812 956.164 34.5599 956.461 32.0859H962.102C961.508 35.1536 960.518 37.875 959.133 40.25H954.234ZM969.633 41.7344V38.0234H973.938V34.1641H979.875V38.0234H994.125V34.1641H1000.06V38.0234H1004.37V41.7344H999.766C999.271 46.6823 996.797 50.3932 992.344 52.8672C995.411 53.7578 999.32 54.3516 1004.07 54.6484V58.0625C996.154 57.1719 990.464 56.0833 987 54.7969C983.635 55.9844 977.945 57.0729 969.93 58.0625V54.6484C974.68 54.3516 978.589 53.7578 981.656 52.8672C977.302 50.4922 974.779 46.7812 974.086 41.7344H969.633ZM971.117 33.125V26.4453H983.734V23.9219H990.266V26.4453H1002.88V33.125H997.391V30.1562H976.609V33.125H971.117ZM987 50.9375C991.156 49.0573 993.482 45.9896 993.977 41.7344H980.023C980.419 45.8906 982.745 48.9583 987 50.9375ZM1023.03 37.5781V34.0156H1029.56V23.9219H1035.35V34.0156H1042.18V37.5781H1035.35V53.1641H1043.22V56.5781H1021.4V53.1641H1029.56V37.5781H1023.03ZM1013.68 58.0625V46.3359C1012.2 47.3255 1010.51 48.3151 1008.63 49.3047V45.8906C1012.69 42.3281 1015.26 38.4688 1016.35 34.3125H1009.38V30.6016H1021.84V34.0156C1021.15 36.4896 1020.31 38.6172 1019.32 40.3984C1020.31 41.7839 1021.84 43.2682 1023.92 44.8516V48.2656C1023.62 48.0677 1023.18 47.8698 1022.59 47.6719C1021.7 47.1771 1020.51 46.5339 1019.02 45.7422V58.0625H1013.68ZM1014.72 29.7109C1014.62 27.9297 1014.03 26.0495 1012.94 24.0703H1017.84C1018.92 26.1484 1019.67 28.0286 1020.06 29.7109H1014.72ZM1055.05 56.4297C1051.39 56.5286 1049.61 54.7969 1049.71 51.2344V25.7031H1080.59V29.5625H1055.5V50.4922C1055.5 52.1745 1056.34 53.0156 1058.02 53.0156H1081.18V56.4297H1055.05ZM1079.55 51.5312C1074.6 49.75 1070.89 48.0677 1068.41 46.4844C1065.94 48.0677 1062.23 49.75 1057.28 51.5312V47.8203C1060.84 46.3359 1063.42 44.9505 1065 43.6641C1061.93 40.8932 1059.51 36.737 1057.73 31.1953H1063.22C1064.51 35.0547 1066.24 38.2214 1068.41 40.6953C1070.59 38.2214 1072.32 35.0547 1073.61 31.1953H1079.1C1077.32 36.737 1074.9 40.8932 1071.83 43.6641C1073.41 44.9505 1075.98 46.3359 1079.55 47.8203V51.5312ZM1112.61 31.7891C1112.51 30.7995 1112.31 29.8099 1112.02 28.8203H1110.23C1109.44 30.0078 1108.35 30.8984 1106.97 31.4922V33.125H1120.48V38.7656H1116.77V42.3281C1116.86 45.3958 1115.48 46.8802 1112.61 46.7812H1096.43V48.7109H1117.8V52.8672C1117.9 56.0339 1116.42 57.5677 1113.35 57.4688H1090.94V38.7656H1087.67V33.125H1100.88V31.4922H1103.7V29.8594C1105.78 28.6719 1106.97 26.7422 1107.27 24.0703H1112.16C1112.16 24.2682 1112.11 24.5156 1112.02 24.8125C1111.92 25.2083 1111.82 25.5052 1111.72 25.7031H1121.07V28.8203H1116.17C1116.67 29.8099 1116.96 30.7995 1117.06 31.7891H1112.61ZM1096.28 31.9375C1096.18 31.6406 1096.08 31.1953 1095.98 30.6016C1095.79 29.8099 1095.64 29.2161 1095.54 28.8203H1094.05C1092.77 30.5026 1090.54 31.6901 1087.38 32.3828V29.7109C1089.55 28.6224 1090.89 26.7422 1091.38 24.0703H1096.13L1095.69 25.7031H1104.3V28.8203H1099.7C1100.19 29.9089 1100.49 30.9479 1100.59 31.9375H1096.28ZM1112.61 51.6797H1096.43V54.5H1111.12C1112.21 54.5 1112.71 54.0052 1112.61 53.0156V51.6797ZM1093.16 36.3906V38.4688H1114.98V36.3906H1093.16ZM1096.43 41.4375V43.8125H1110.09C1111.08 43.9115 1111.52 43.4661 1111.42 42.4766V41.4375H1096.43ZM1138.25 43.2188V25.2578H1158.88V38.3203C1158.98 41.6849 1157.35 43.3177 1153.98 43.2188H1151.16V46.3359H1159.18V50.0469H1151.16V53.6094H1160.52V56.875H1136.47V53.6094H1145.97V50.0469H1138.1V46.3359H1145.97V43.2188H1138.25ZM1126.23 29.2656V25.7031H1137.06V29.2656H1134.39V37.1328H1136.91V40.8438H1134.39V50.0469L1137.36 49.3047V52.8672C1134.49 53.9557 1130.63 54.8464 1125.78 55.5391V51.3828L1129.2 51.0859V40.8438H1126.38V37.1328H1129.2V29.2656H1126.23ZM1142.85 39.6562H1145.97V35.9453H1142.85V39.6562ZM1154.28 28.8203H1151.16V32.2344H1154.28V28.8203ZM1152.2 39.6562C1153.69 39.6562 1154.38 38.9635 1154.28 37.5781V35.9453H1151.16V39.6562H1152.2ZM1142.85 28.8203V32.2344H1145.97V28.8203H1142.85ZM1166.56 29.2656V25.5547H1197.59V29.2656H1184.97V43.0703H1199.07V46.9297H1184.97V58.2109H1179.03V46.9297H1164.78V43.0703H1179.03V29.2656H1166.56ZM1170.72 40.25C1169.43 37.776 1168.49 35.0547 1167.9 32.0859H1173.54C1173.93 35.0547 1174.68 37.776 1175.77 40.25H1170.72ZM1188.23 40.25C1189.42 37.2812 1190.16 34.5599 1190.46 32.0859H1196.1C1195.51 35.1536 1194.52 37.875 1193.13 40.25H1188.23ZM1207.34 57.1719V41.7344H1234.95V51.8281C1235.05 55.4896 1233.22 57.2708 1229.46 57.1719H1207.34ZM1232.13 39.9531C1232.03 39.6562 1231.93 39.2604 1231.84 38.7656C1231.64 38.1719 1231.49 37.776 1231.39 37.5781C1227.73 38.0729 1224.32 38.4193 1221.15 38.6172C1218.08 38.8151 1214.07 38.9141 1209.12 38.9141H1205.86V34.4609C1209.82 31.3932 1212.69 27.9297 1214.47 24.0703H1221.45C1219.07 28.4245 1215.8 31.9375 1211.65 34.6094C1218.77 34.6094 1224.96 34.4115 1230.2 34.0156C1230.01 33.4219 1229.61 32.4818 1229.02 31.1953C1228.52 30.2057 1228.17 29.4635 1227.98 28.9688H1232.88C1234.95 32.3333 1236.54 35.9948 1237.62 39.9531H1232.13ZM1212.84 53.6094H1227.23C1228.72 53.7083 1229.41 52.9661 1229.31 51.3828V45.5938H1212.84V53.6094Z" fill="url(#paint6_linear)"/>
</g>
</g>
<path fill-rule="evenodd" clip-rule="evenodd" d="M1912 72H1906L1914 80H1920L1912 72ZM1902 72H1896L1904 80H1910L1902 72ZM1886 72H1892L1900 80H1894L1886 72ZM1872 72H1866L1874 80H1880L1872 72ZM1856 72H1862L1870 80H1864L1856 72ZM1832 72H1826L1834 80H1840L1832 72ZM1876 72H1882L1890 80H1884L1876 72ZM1852 72H1846L1854 80H1860L1852 72ZM1836 72H1842L1850 80H1844L1836 72Z" fill="url(#paint7_linear)"/>
<rect x="1482" y="77" width="340" height="3" fill="url(#paint8_linear)"/>
<rect x="1610" y="75" width="20" height="5" fill="url(#paint9_linear)"/>
<rect x="1653" y="75" width="92" height="5" fill="url(#paint10_linear)"/>
<path fill-rule="evenodd" clip-rule="evenodd" d="M8 72H14L6 80H0L8 72ZM18 72H24L16 80H10L18 72ZM34 72H28L20 80H26L34 72ZM48 72H54L46 80H40L48 72ZM64 72H58L50 80H56L64 72ZM88 72H94L86 80H80L88 72ZM44 72H38L30 80H36L44 72ZM68 72H74L66 80H60L68 72ZM84 72H78L70 80H76L84 72Z" fill="url(#paint11_linear)"/>
<rect width="340" height="3" transform="matrix(-1 0 0 1 438 77)" fill="url(#paint12_linear)"/>
<rect width="20" height="5" transform="matrix(-1 0 0 1 310 75)" fill="url(#paint13_linear)"/>
<rect width="92" height="5" transform="matrix(-1 0 0 1 267 75)" fill="url(#paint14_linear)"/>
</g>
<defs>
<filter id="filter0_d" x="660" y="17" width="62" height="54" filterUnits="userSpaceOnUse" color-interpolation-filters="sRGB">
<feFlood flood-opacity="0" result="BackgroundImageFix"/>
<feColorMatrix in="SourceAlpha" type="matrix" values="0 0 0 0 0 0 0 0 0 0 0 0 0 0 0 0 0 0 127 0"/>
<feOffset dy="4"/>
<feGaussianBlur stdDeviation="4"/>
<feColorMatrix type="matrix" values="0 0 0 0 0.00392157 0 0 0 0 0.117647 0 0 0 0 0.294118 0 0 0 0.48 0"/>
<feBlend mode="normal" in2="BackgroundImageFix" result="effect1_dropShadow"/>
<feBlend mode="normal" in="SourceGraphic" in2="effect1_dropShadow" result="shape"/>
</filter>
<filter id="filter1_d" x="727.93" y="19.7734" width="517.695" height="50.4375" filterUnits="userSpaceOnUse" color-interpolation-filters="sRGB">
<feFlood flood-opacity="0" result="BackgroundImageFix"/>
<feColorMatrix in="SourceAlpha" type="matrix" values="0 0 0 0 0 0 0 0 0 0 0 0 0 0 0 0 0 0 127 0"/>
<feOffset dy="4"/>
<feGaussianBlur stdDeviation="4"/>
<feColorMatrix type="matrix" values="0 0 0 0 0.00392157 0 0 0 0 0.117647 0 0 0 0 0.294118 0 0 0 0.48 0"/>
<feBlend mode="normal" in2="BackgroundImageFix" result="effect1_dropShadow"/>
<feBlend mode="normal" in="SourceGraphic" in2="effect1_dropShadow" result="shape"/>
</filter>
<linearGradient id="paint0_linear" x1="652.478" y1="-25" x2="652.478" y2="81" gradientUnits="userSpaceOnUse">
<stop stop-color="#093D77"/>
<stop offset="1" stop-color="#218EF2"/>
</linearGradient>
<linearGradient id="paint1_linear" x1="1315.38" y1="76.9012" x2="617.345" y2="76.9012" gradientUnits="userSpaceOnUse">
<stop stop-color="#26AAC1" stop-opacity="0.0459462"/>
<stop offset="0.122587" stop-color="#2EB2D1" stop-opacity="0"/>
<stop offset="0.501426" stop-color="#44C7FF"/>
<stop offset="0.885386" stop-color="#3FC1EF" stop-opacity="0"/>
<stop offset="1" stop-color="#3EBFEA" stop-opacity="0.01"/>
</linearGradient>
<linearGradient id="paint2_linear" x1="725" y1="77" x2="1185.5" y2="75.0002" gradientUnits="userSpaceOnUse">
<stop stop-color="#19FCFF" stop-opacity="0"/>
<stop offset="0.218412" stop-color="#19FCFF" stop-opacity="0.109941"/>
<stop offset="0.566263" stop-color="#19FCFF" stop-opacity="0.85"/>
<stop offset="0.887972" stop-color="#19FCFF" stop-opacity="0"/>
</linearGradient>
<linearGradient id="paint3_linear" x1="783.5" y1="76.0004" x2="1147" y2="76.0002" gradientUnits="userSpaceOnUse">
<stop offset="0.138593" stop-color="#50F8FE" stop-opacity="0"/>
<stop offset="0.238076" stop-color="#50F8FE" stop-opacity="0.105923"/>
<stop offset="0.561895" stop-color="#50F8FE" stop-opacity="0.438105"/>
<stop offset="0.842188" stop-color="#50F8FE" stop-opacity="0"/>
</linearGradient>
<linearGradient id="paint4_linear" x1="916.386" y1="77.9996" x2="1002.07" y2="77.9996" gradientUnits="userSpaceOnUse">
<stop stop-color="white" stop-opacity="0"/>
<stop offset="0.492712" stop-color="white" stop-opacity="0.59"/>
<stop offset="1" stop-color="white" stop-opacity="0"/>
</linearGradient>
<linearGradient id="paint5_linear" x1="670.999" y1="25.955" x2="670.999" y2="59" gradientUnits="userSpaceOnUse">
<stop stop-color="#ECF9FE"/>
<stop offset="1" stop-color="#21BFF2"/>
</linearGradient>
<linearGradient id="paint6_linear" x1="766.99" y1="26.7589" x2="766.99" y2="68.5" gradientUnits="userSpaceOnUse">
<stop stop-color="#ECF9FE"/>
<stop offset="1" stop-color="#21BFF2"/>
</linearGradient>
<linearGradient id="paint7_linear" x1="1782" y1="76" x2="1790.63" y2="41.3122" gradientUnits="userSpaceOnUse">
<stop offset="0.0334724" stop-color="#21BFF2" stop-opacity="0"/>
<stop offset="1" stop-color="#21BFF2"/>
</linearGradient>
<linearGradient id="paint8_linear" x1="1850.94" y1="78.5" x2="1850.68" y2="68.2569" gradientUnits="userSpaceOnUse">
<stop offset="0.0334724" stop-color="#21BFF2" stop-opacity="0"/>
<stop offset="1" stop-color="#21BFF2"/>
</linearGradient>
<linearGradient id="paint9_linear" x1="1631.7" y1="77.5" x2="1623.62" y2="66.2016" gradientUnits="userSpaceOnUse">
<stop offset="0.0334724" stop-color="#21BFF2" stop-opacity="0"/>
<stop offset="1" stop-color="#21BFF2"/>
</linearGradient>
<linearGradient id="paint10_linear" x1="1752.83" y1="77.5" x2="1750.24" y2="60.8208" gradientUnits="userSpaceOnUse">
<stop offset="0.0334724" stop-color="#21BFF2" stop-opacity="0"/>
<stop offset="1" stop-color="#21BFF2"/>
</linearGradient>
<linearGradient id="paint11_linear" x1="138" y1="76" x2="129.369" y2="41.3122" gradientUnits="userSpaceOnUse">
<stop offset="0.0334724" stop-color="#21BFF2" stop-opacity="0"/>
<stop offset="1" stop-color="#21BFF2"/>
</linearGradient>
<linearGradient id="paint12_linear" x1="368.936" y1="1.5" x2="368.678" y2="-8.74315" gradientUnits="userSpaceOnUse">
<stop offset="0.0334724" stop-color="#21BFF2" stop-opacity="0"/>
<stop offset="1" stop-color="#21BFF2"/>
</linearGradient>
<linearGradient id="paint13_linear" x1="21.7021" y1="2.5" x2="13.6179" y2="-8.79837" gradientUnits="userSpaceOnUse">
<stop offset="0.0334724" stop-color="#21BFF2" stop-opacity="0"/>
<stop offset="1" stop-color="#21BFF2"/>
</linearGradient>
<linearGradient id="paint14_linear" x1="99.8298" y1="2.5" x2="97.2354" y2="-14.1792" gradientUnits="userSpaceOnUse">
<stop offset="0.0334724" stop-color="#21BFF2" stop-opacity="0"/>
<stop offset="1" stop-color="#21BFF2"/>
</linearGradient>
<clipPath id="clip0">
<rect width="1920" height="80" fill="white"/>
</clipPath>
<clipPath id="clip1">
<rect width="1218" height="66" fill="white" transform="translate(351 15)"/>
</clipPath>
<clipPath id="clip2">
<rect width="586" height="48" fill="white" transform="translate(667 16)"/>
</clipPath>
</defs>
</svg>
