<svg width="44" height="44" viewBox="0 0 44 44" fill="none" xmlns="http://www.w3.org/2000/svg">
<circle cx="22" cy="22" r="22" fill="#00F0EF" fill-opacity="0.24"/>
<mask id="mask0" mask-type="alpha" maskUnits="userSpaceOnUse" x="0" y="0" width="44" height="44">
<circle cx="22" cy="22" r="22" fill="#20BCFF"/>
</mask>
<g mask="url(#mask0)">
<path fill-rule="evenodd" clip-rule="evenodd" d="M22.6318 44.254H34.2642C34.2642 44.254 33.6945 36.1063 25.7559 34.8406C23.5874 34.682 22.6318 34.7463 22.6318 34.7463V34.7549C22.6318 41.5081 22.6318 44.254 22.6318 44.254Z" fill="#484848"/>
<path fill-rule="evenodd" clip-rule="evenodd" d="M22.5956 44.2538H11C11 44.2538 11.5697 36.0976 19.49 34.8276C21.64 34.6688 22.5956 34.7331 22.5956 34.7331V44.2538Z" fill="#333333"/>
<mask id="mask1" mask-type="alpha" maskUnits="userSpaceOnUse" x="11" y="6" width="24" height="39">
<path fill-rule="evenodd" clip-rule="evenodd" d="M11 44.2627H34.375V6.15869H11V44.2627Z" fill="white"/>
</mask>
<g mask="url(#mask1)">
<path fill-rule="evenodd" clip-rule="evenodd" d="M19.71 41.0576H25.8845V30.0225H19.71V41.0576Z" fill="#FFDDB8"/>
<path fill-rule="evenodd" clip-rule="evenodd" d="M19.71 29.8296H25.8845V31.7646L19.71 35.5401V29.8296Z" fill="#E5C6A5"/>
<path fill-rule="evenodd" clip-rule="evenodd" d="M22.6318 44.2413C22.6318 44.2413 23.9733 44.25 24.5981 44.25C24.8554 43.8295 27.9059 35.6303 27.8875 35.5016C27.8692 35.42 23.8814 36.2696 23.8814 36.2696L22.6318 37.5997V44.2413Z" fill="white"/>
<path fill-rule="evenodd" clip-rule="evenodd" d="M22.7242 44.254C22.7242 44.254 21.4011 44.2626 20.7763 44.2626C20.519 43.8422 17.4685 35.6558 17.4869 35.5227C17.5053 35.4413 21.5849 36.2692 21.5849 36.2692L22.7242 37.6165V44.254Z" fill="#E0ECFF"/>
<path fill-rule="evenodd" clip-rule="evenodd" d="M19.8027 35.4971H22.8716V44.2155H21.8058L22.0998 40.9803" fill="#333333"/>
<path fill-rule="evenodd" clip-rule="evenodd" d="M25.8669 35.4971H22.8164V44.2496H23.8639L23.5882 40.9975" fill="#333333"/>
<path fill-rule="evenodd" clip-rule="evenodd" d="M19.582 33.2871L17.487 35.0206C17.487 35.0206 17.4503 39.9201 17.487 39.7356C17.5238 39.5513 22.8346 35.5009 22.8346 35.5009L19.582 33.2871ZM26.0503 33.2872L28.1452 35.0162C28.1452 35.0162 28.182 39.9117 28.1452 39.7271C28.1085 39.5427 22.8344 35.4968 22.8344 35.4968L26.0503 33.2872Z" fill="white"/>
<path fill-rule="evenodd" clip-rule="evenodd" d="M22.6318 12.0283V31.0738C25.1862 30.9452 28.2918 29.2075 29.7436 26.4229C30.497 24.9941 30.5521 23.351 30.5521 21.5661C30.5521 16.2974 27.1708 12.0283 22.6318 12.0283Z" fill="#FFDDB8"/>
<path fill-rule="evenodd" clip-rule="evenodd" d="M22.6334 12.0283V31.0738C20.079 30.9452 16.9918 29.2075 15.54 26.4229C14.7866 24.9941 14.7314 23.351 14.7314 21.5661C14.7314 16.2974 18.1127 12.0283 22.6334 12.0283Z" fill="#F5D4B1"/>
<path fill-rule="evenodd" clip-rule="evenodd" d="M15.3554 20.9263C15.5024 18.7511 16.5131 16.2539 19.876 14.8681C20.6846 15.0568 22.3753 16.4856 25.389 15.0653C27.4288 14.1002 30.0015 18.3949 30.3691 20.1624C30.6631 21.5785 30.0934 21.4326 31.0306 21.1235C31.2511 20.9565 32.5559 19.7506 30.3691 11.0237C25.9219 7.21372 22.8347 7.1709 22.8347 7.1709C22.8347 7.1709 17.1012 7.28667 15.484 11.5001C14.3447 15.5631 13.628 17.2881 14.5285 20.7332C15.0063 19.5448 14.9511 19.8792 15.3554 20.9263Z" fill="#5C3E31"/>
<path fill-rule="evenodd" clip-rule="evenodd" d="M22.6318 12.9678L31.5445 13.5641C31.5445 13.5641 32.8125 13.0363 33.9334 11.0713C36.157 7.81038 29.3944 6.16733 22.6318 6.15869V12.9678Z" fill="#484848"/>
<path fill-rule="evenodd" clip-rule="evenodd" d="M22.689 12.9678L13.8131 13.5641C13.8131 13.5641 12.5451 13.0363 11.4241 11.0713C9.21894 7.81038 15.9631 6.16733 22.689 6.15869V12.9678Z" fill="#333333"/>
<path fill-rule="evenodd" clip-rule="evenodd" d="M22.5967 18.5582C22.8356 18.5582 23.6441 18.687 27.9259 18.1036C34.0269 17.2713 31.3439 13.5642 31.3439 13.5642L22.5967 13.4697C22.5967 13.4697 22.5967 15.7909 22.5967 18.5582Z" fill="#484848"/>
<path fill-rule="evenodd" clip-rule="evenodd" d="M22.6875 18.5668C22.4486 18.5668 21.5298 18.6655 17.2481 18.0863C11.147 17.2582 13.8116 13.5642 13.8116 13.5642L22.5956 13.4697C22.5956 13.4697 22.6875 15.8124 22.6875 18.5668Z" fill="#333333"/>
<path fill-rule="evenodd" clip-rule="evenodd" d="M30.5521 10.6812H22.6318V14.7187H30.5521C31.0851 14.7187 31.5077 14.2896 31.5077 13.7576V11.6422C31.5077 11.1102 31.0851 10.6812 30.5521 10.6812Z" fill="#575757"/>
<path fill-rule="evenodd" clip-rule="evenodd" d="M14.731 10.6812H22.633V14.7187H14.731C14.1981 14.7187 13.7755 14.2896 13.7755 13.7576V11.6422C13.7571 11.1102 14.1981 10.6812 14.731 10.6812Z" fill="#444444"/>
<path fill-rule="evenodd" clip-rule="evenodd" d="M24.7461 12.178L23.3494 11.9119L22.6695 10.6763L21.9896 11.9119L20.6113 12.178L21.5669 13.2076L21.4015 14.6065L22.6695 14.0056L23.9375 14.6065L23.7721 13.2076L24.7461 12.178Z" fill="#E3B558"/>
<path fill-rule="evenodd" clip-rule="evenodd" d="M31.3797 19.3086C31.8942 19.4802 32.0412 20.42 31.7105 21.3982C31.3797 22.3806 30.6998 23.0372 30.1852 22.8612C29.689 22.6897 29.542 21.7499 29.8728 20.7717C30.1852 19.7893 30.8651 19.1371 31.3797 19.3086Z" fill="#FFDDB8"/>
<path fill-rule="evenodd" clip-rule="evenodd" d="M13.9957 19.2665C13.4811 19.4424 13.3341 20.3906 13.6649 21.3859C13.9957 22.3815 14.6756 23.0464 15.1718 22.8705C15.6863 22.6945 15.8333 21.7464 15.5026 20.751C15.1718 19.7557 14.4918 19.0905 13.9957 19.2665Z" fill="#F5D4B1"/>
</g>
</g>
</svg>
